<svg width="160" height="161" viewBox="0 0 160 161" fill="#0d71c9" xmlns="http://www.w3.org/2000/svg">
<path fill-rule="evenodd" clip-rule="evenodd" d="M160 80.5C160 124.683 124.183 160.5 80 160.5C35.8172 160.5 0 124.683 0 80.5C0 36.3172 35.8172 0.5 80 0.5C124.183 0.5 160 36.3172 160 80.5ZM154 80.5C154 121.369 120.869 154.5 80 154.5C39.1309 154.5 6 121.369 6 80.5C6 39.6309 39.1309 6.5 80 6.5C120.869 6.5 154 39.6309 154 80.5Z" fill="#0d71c9"/>
<path d="M99.9784 67.6948C90.972 67.6948 84.5433 73.7577 84.5433 73.7577L84.5201 64.3179V58.3701C87.746 61.3402 92.585 64.2796 99.1372 64.2796C120.391 64.2796 120.878 50.7108 120.368 45.8298C120.291 45.0853 119.458 44.6862 118.825 45.0853C116.656 46.4591 111.37 48.7768 100.364 48.7768C91.4119 48.7768 84.4969 46.0907 81.3868 44.6249C80.5533 44.2258 79.5886 44.8321 79.5886 45.753V51.4322C75.6989 47.618 69.5017 45.1928 60.9815 45.1928C43.2619 45.1928 36.208 56.958 36.208 67.8636C36.208 72.7447 40.1903 76.7048 45.091 76.7048C49.9993 76.7048 53.9816 72.7447 53.9816 67.8636C53.9816 63.9726 51.4502 60.6648 47.9387 59.4906L47.9465 59.4829C47.9465 59.4829 50.2077 51.3325 59.2141 51.3325C67.0321 51.3325 71.6857 66.3671 54.792 79.529C35.9688 94.2029 35.7218 108.762 36.0691 112.783C36.1231 113.405 36.6325 113.873 37.2499 113.873C38.3689 113.873 39.4417 113.497 40.306 112.806C41.2862 112.031 43.0767 111.118 46.102 111.118C58.0565 111.118 62.9417 115.078 70.6053 115.078C76.5864 115.078 80.0902 112.346 82.0196 109.944C86.5035 114.318 93.1792 115.5 100.025 115.5C109.579 115.5 123 109.675 123 90.1507C123.015 70.6265 108.985 67.6948 99.9784 67.6948ZM95.672 108.355C90.3314 108.355 88.1011 105.116 87.175 102.338C91.9599 101.847 95.672 98.14 95.672 93.6503C95.672 88.823 91.381 84.9013 86.0868 84.9013C80.7925 84.9013 76.5015 88.8153 76.5015 93.6503C76.5015 96.0602 76.7022 98.2091 77.0803 100.135C75.9845 100.849 74.6107 101.31 72.9128 101.31C65.2647 101.31 64.2151 97.3188 56.7445 97.3188C49.2816 97.3188 45.5849 100.274 45.5849 100.274C45.5849 95.8606 54.3057 91.0486 67.1941 85.8453C70.1499 84.6557 72.6196 83.2819 74.6802 81.8007C74.6802 81.8007 74.796 81.7163 75.0043 81.5551C75.2513 81.3633 75.6372 81.0716 76.1311 80.6879C76.1465 80.6726 76.1542 80.6649 76.1774 80.6495C77.1112 79.9204 78.4309 78.8767 79.9667 77.6257L83.5245 81.4477C83.8255 81.6779 84.25 81.6242 84.4738 81.3172C85.5543 79.7977 89.004 75.7761 95.1318 75.7761C102.695 75.7761 105.103 86.2597 105.103 93.1745C105.103 100.089 102.132 108.355 95.672 108.355Z" fill="#0d71c9"/>
</svg>
